<svg width="24" height="24" viewBox="0 0 24 24" fill="none" xmlns="http://www.w3.org/2000/svg">
<path d="M9.2373 3.7002C10.4169 3.7002 11.5297 4.24779 12.249 5.18262L12.4424 5.43359H18C20.0987 5.43359 21.7998 7.13472 21.7998 9.2334V16.5C21.7998 18.5987 20.0987 20.2998 18 20.2998H6C3.90132 20.2998 2.2002 18.5987 2.2002 16.5V7.5C2.2002 5.40132 3.90132 3.7002 6 3.7002H9.2373ZM6 5.5C4.89543 5.5 4 6.39543 4 7.5V16.5C4 17.6046 4.89543 18.5 6 18.5H18C19.0357 18.5 19.887 17.7128 19.9893 16.7041L20 16.5V9.2334C20 8.19775 19.2128 7.34641 18.2041 7.24414L18 7.2334H12.0479L11.9326 7.22656C11.666 7.19561 11.4205 7.05812 11.2549 6.84277L10.8223 6.28027C10.4437 5.78834 9.85808 5.5 9.2373 5.5H6ZM16 9.59961C16.4971 9.59961 16.9004 10.0029 16.9004 10.5C16.9004 10.9971 16.4971 11.4004 16 11.4004H8C7.50294 11.4004 7.09961 10.9971 7.09961 10.5C7.09961 10.0029 7.50294 9.59961 8 9.59961H16Z" fill="currentColor"/>
</svg>
