<svg width="24" height="24" viewBox="0 0 24 24" fill="none" xmlns="http://www.w3.org/2000/svg">
<g clip-path="url(#clip0_4626_2033)">
<path d="M18.3623 9.99976L18.209 8.48999C18.2031 8.43161 18.2004 8.37289 18.2002 8.31421C18.1988 8.31196 18.1956 8.30842 18.1904 8.30347C18.1718 8.28559 18.1302 8.26245 18.0713 8.26245H11C10.261 8.26245 9.59753 7.81016 9.32617 7.1228L8.9082 6.06421C8.88101 5.9953 8.85737 5.92501 8.83887 5.85327C8.83778 5.85099 8.833 5.84268 8.81836 5.83179C8.79454 5.81475 8.7549 5.79939 8.70605 5.80054H3.92871C3.86986 5.80054 3.82825 5.82368 3.80957 5.84155C3.80816 5.8429 3.80675 5.84428 3.80566 5.84546L4.47559 14.0955L3.62109 17.5154L5.12109 11.5154C5.34367 10.6251 6.1438 9.99977 7.06152 9.99976H18.3623ZM7.06152 11.7996C6.96976 11.7996 6.88944 11.8629 6.86719 11.9519L5.36719 17.9519C5.33598 18.078 5.43158 18.1999 5.56152 18.2H19.4385C19.5302 18.1999 19.6106 18.1376 19.6328 18.0486L21.1328 12.0486C21.1644 11.9224 21.0686 11.7996 20.9385 11.7996H7.06152ZM20.9385 9.99976C22.2396 9.99977 23.1945 11.2228 22.8789 12.4851L21.3789 18.4851C21.1563 19.3754 20.3562 19.9997 19.4385 19.9998H4.92871C4.41722 19.9998 3.92613 19.8059 3.56445 19.4597C3.20281 19.1135 3.00004 18.6436 3 18.1541L2 5.84644C2.00006 5.35711 2.20311 4.88786 2.56445 4.54175C2.92613 4.19554 3.41722 4.00073 3.92871 4.00073H8.66406C9.10133 3.99051 9.5296 4.1225 9.87793 4.37573C10.2285 4.63118 10.4767 4.99457 10.582 5.40405L11 6.46167H18.0713C18.5828 6.46167 19.0739 6.65648 19.4355 7.00269C19.7971 7.34888 20 7.81883 20 8.30835L20.1719 9.99976H20.9385Z" fill="currentColor"/>
</g>
<defs>
<clipPath id="clip0_4626_2033">
<rect width="24" height="24" fill="white"/>
</clipPath>
</defs>
</svg>
