<svg width="24" height="24" viewBox="0 0 24 24" fill="none" xmlns="http://www.w3.org/2000/svg">
<path d="M6 12C6 12.8283 5.32834 13.5 4.5 13.5C3.67166 13.5 3 12.8283 3 12C3 11.1717 3.67166 10.5 4.5 10.5C5.32834 10.5 6 11.1717 6 12Z" fill="currentColor"/>
<path d="M13.5 12C13.5 12.8283 12.8283 13.5 12 13.5C11.1717 13.5 10.5 12.8283 10.5 12C10.5 11.1717 11.1717 10.5 12 10.5C12.8283 10.5 13.5 11.1717 13.5 12Z" fill="currentColor"/>
<path d="M19.5002 13.5C20.3287 13.5 21 12.8287 21 12.0002C21 11.1718 20.3287 10.5 19.5002 10.5C18.6718 10.5 18 11.1718 18 12.0002C18 12.8287 18.6718 13.5 19.5002 13.5Z" fill="currentColor"/>
</svg>
