<svg width="24" height="24" viewBox="0 0 24 24" fill="none" xmlns="http://www.w3.org/2000/svg">
<path d="M11.5 3C16.1944 3 20 6.80558 20 11.5C20 13.523 19.2933 15.381 18.1132 16.8404L21.1364 19.8636C21.4879 20.2151 21.4879 20.7849 21.1364 21.1364C20.7849 21.4879 20.2151 21.4879 19.8636 21.1364L16.8404 18.1132C15.381 19.2933 13.523 20 11.5 20C6.80558 20 3 16.1944 3 11.5C3 6.80558 6.80558 3 11.5 3ZM11.5 18.2C15.2003 18.2 18.2 15.2003 18.2 11.5C18.2 7.79969 15.2003 4.8 11.5 4.8C7.79969 4.8 4.8 7.79969 4.8 11.5C4.8 15.2003 7.79969 18.2 11.5 18.2Z" fill="currentColor"/>
</svg>
