<svg width="24" height="24" viewBox="0 0 24 24" fill="none" xmlns="http://www.w3.org/2000/svg">
<path d="M16.0404 12C16.0404 9.76874 14.2313 7.9596 12.0001 7.9596C9.76883 7.9596 7.95972 9.76874 7.95972 12C7.95972 14.2313 9.76883 16.0404 12.0001 16.0404C14.2313 16.0404 16.0404 14.2313 16.0404 12ZM14.2222 12C14.2222 13.2271 13.2271 14.2222 12 14.2222C10.7729 14.2222 9.77783 13.2271 9.77783 12C9.77783 10.7729 10.7729 9.77778 12 9.77778C13.2271 9.77778 14.2222 10.7729 14.2222 12Z" fill="currentColor"/>
<path d="M9.91145 21.8009C9.29001 21.6797 8.76914 21.2612 8.50632 20.6922L8.07372 19.7556C7.88838 19.3544 7.43553 19.1048 6.95371 19.1549L5.89572 19.2647C5.2733 19.3293 4.64823 19.114 4.22298 18.6611C3.74343 18.1504 3.32454 17.6037 2.97033 17.0181C2.61571 16.4318 2.32839 15.8106 2.10407 15.1566C1.89769 14.5549 2.02148 13.8954 2.4089 13.3902L3.0376 12.5704C3.30043 12.2277 3.30042 11.7722 3.03758 11.4295L2.40413 10.6035C2.01474 10.0958 1.891 9.43198 2.10208 8.82826C2.55037 7.54612 3.27017 6.35997 4.22 5.34259C4.64518 4.8872 5.27275 4.67067 5.89701 4.73544L6.95383 4.84514C7.43561 4.89515 7.88844 4.6456 8.07377 4.24441L8.50266 3.31593C8.76494 2.74818 9.28448 2.33019 9.90423 2.20761C11.2916 1.9332 12.7148 1.93127 14.0885 2.19913C14.7099 2.32029 15.2308 2.73881 15.4937 3.3078L15.9263 4.24441C16.1116 4.6456 16.5644 4.89514 17.0462 4.84514L18.1043 4.73532C18.7267 4.67072 19.3518 4.88603 19.777 5.33886C20.2566 5.84953 20.6755 6.3963 21.0297 6.98193C21.3843 7.56823 21.6716 8.18942 21.8959 8.84339C22.1023 9.44509 21.9785 10.1046 21.5911 10.6098L20.9624 11.4295C20.6996 11.7722 20.6996 12.2278 20.9624 12.5705L21.5959 13.3964C21.9853 13.9042 22.109 14.568 21.8979 15.1717C21.4497 16.4538 20.7299 17.6399 19.7801 18.6573C19.3549 19.1128 18.7273 19.3294 18.103 19.2646L17.0462 19.1549C16.5645 19.1049 16.1116 19.3544 15.9263 19.7556L15.4974 20.6841C15.2351 21.2518 14.7156 21.6698 14.0958 21.7924C12.7083 22.0668 11.2852 22.0687 9.91145 21.8009ZM13.7432 20.0088C13.7844 20.0006 13.8259 19.9673 13.847 19.9216L14.2758 18.9931C14.7915 17.8768 15.9886 17.2171 17.2341 17.3464L18.2909 17.4561C18.3649 17.4638 18.4272 17.4423 18.4512 17.4166C19.2296 16.5828 19.8171 15.6146 20.1817 14.5716C20.1845 14.5636 20.1796 14.5373 20.1532 14.5029L19.5198 13.677C18.7564 12.6815 18.7564 11.3185 19.5198 10.323L20.1485 9.5033C20.1746 9.46927 20.1795 9.4429 20.1762 9.43327C19.9932 8.89965 19.7603 8.39623 19.4741 7.92293C19.1873 7.4489 18.846 7.00333 18.4517 6.58351C18.4272 6.55739 18.3656 6.53616 18.2921 6.54378L17.234 6.65361C15.9886 6.78287 14.7915 6.12317 14.2758 5.00689L13.8432 4.07027C13.822 4.02448 13.7811 3.9916 13.7406 3.98371C12.5983 3.76097 11.4132 3.76258 10.2571 3.99124C10.2158 3.99941 10.1744 4.03271 10.1533 4.07842L9.72441 5.00689C9.20875 6.12317 8.01164 6.7829 6.76619 6.6536L5.70942 6.54391C5.63535 6.53623 5.573 6.55774 5.54905 6.5834C4.77067 7.41713 4.18312 8.38534 3.81845 9.42835C3.81564 9.43637 3.82054 9.46265 3.84693 9.49706L4.48038 10.323C5.24381 11.3185 5.24383 12.6815 4.48041 13.6769L3.85171 14.4967C3.82561 14.5307 3.82066 14.5571 3.82396 14.5667C4.00701 15.1004 4.23986 15.6038 4.52613 16.0771C4.81284 16.5511 5.15421 16.9967 5.54845 17.4165C5.57298 17.4426 5.63461 17.4638 5.70811 17.4562L6.76608 17.3464C8.01157 17.2171 9.20871 17.8768 9.72438 18.9932L10.157 19.9297C10.1781 19.9755 10.2191 20.0084 10.2595 20.0163C11.4018 20.239 12.587 20.2374 13.7432 20.0088Z" fill="currentColor"/>
</svg>
